<?xml version="1.0" encoding="UTF-8" standalone="no"?>
<svg width="48px" height="48px" viewBox="0 0 48 48" version="1.1" xmlns="http://www.w3.org/2000/svg" xmlns:xlink="http://www.w3.org/1999/xlink">
    <!-- Generator: Sketch 41 (35326) - http://www.bohemiancoding.com/sketch -->
    <title>business-icon</title>
    <desc>Created with Sketch.</desc>
    <defs></defs>
    <g id="Page-1" stroke="none" stroke-width="1" fill="none" fill-rule="evenodd">
        <g id="Desktop-v4" transform="translate(-762.000000, -505.000000)">
            <g id="services" transform="translate(160.000000, 448.000000)">
                <g id="consulting" transform="translate(602.000000, 57.000000)">
                    <g id="business-icon">
                        <ellipse id="business-bg" fill="#D8D8D8" cx="24" cy="23.6712329" rx="24" ry="23.6712329"></ellipse>
                        <path d="M16.5652174,29.9321024 L16.5652174,25.8234068 L22.0434783,25.8234068 L22.0434783,26.0169068 C22.0434783,26.3411024 22.3573043,26.6060155 22.6813043,26.6060155 L25.3186957,26.6060155 C25.6426957,26.6060155 25.9565217,26.3411024 25.9565217,26.0169068 L25.9565217,25.8234068 L31.4320435,25.8234068 L31.430087,29.9321024 L16.5652174,29.9321024 Z M23.2173913,25.4321024 L24.7826087,25.4321024 L24.7826087,25.0407981 L23.2173913,25.0407981 L23.2173913,25.4321024 Z M31.4343913,20.5407981 L31.4324348,24.6494937 L25.9565217,24.6494937 L25.9565217,24.3656024 C25.9565217,24.0416024 25.6426957,23.8668851 25.3186957,23.8668851 L22.6813043,23.8668851 C22.3573043,23.8668851 22.0434783,24.0416024 22.0434783,24.3656024 L22.0434783,24.6494937 L16.5652174,24.6494937 L16.5652174,20.5407981 L31.4343913,20.5407981 Z M21.4565217,18.9755807 L26.5434783,18.9755807 L26.5434783,17.4103633 L21.4565217,17.4103633 L21.4565217,18.9755807 Z M32.7708913,19.1598851 C32.6241522,19.0129503 32.4249783,18.9755807 32.2173913,18.9755807 L28.1086957,18.9755807 L28.1086957,16.6277546 C28.1086957,16.195559 27.7201304,15.8451459 27.2879348,15.8451459 L20.7120652,15.8451459 C20.2798696,15.8451459 19.8913043,16.195559 19.8913043,16.6277546 L19.8913043,18.9755807 L15.7826087,18.9755807 C15.350413,18.9755807 15,19.2357981 15,19.6679937 L15,30.7147111 C15,31.1469068 15.350413,31.4973198 15.7826087,31.4973198 L32.2123043,31.4973198 C32.6443043,31.4973198 32.9947174,31.1471024 32.994913,30.7151024 L33,19.6908851 C33,19.4832981 32.9176304,19.3066242 32.7708913,19.1598851 L32.7708913,19.1598851 Z" id="briefcase" fill="#1F1F21"></path>
                    </g>
                </g>
            </g>
        </g>
    </g>
</svg>