<?xml version="1.0" encoding="UTF-8" standalone="no"?>
<svg width="48px" height="48px" viewBox="0 0 48 48" version="1.1" xmlns="http://www.w3.org/2000/svg" xmlns:xlink="http://www.w3.org/1999/xlink">
    <!-- Generator: Sketch 41 (35326) - http://www.bohemiancoding.com/sketch -->
    <title>design-icon</title>
    <desc>Created with Sketch.</desc>
    <defs></defs>
    <g id="Page-1" stroke="none" stroke-width="1" fill="none" fill-rule="evenodd">
        <g id="Desktop-v4" transform="translate(-160.000000, -505.000000)">
            <g id="services" transform="translate(160.000000, 448.000000)">
                <g id="design" transform="translate(0.000000, 57.000000)">
                    <g id="design-icon">
                        <ellipse id="design-bg" fill="#D8D8D8" cx="24" cy="23.6712329" rx="24" ry="23.6712329"></ellipse>
                        <path d="M31.4093484,16.4317456 C31.4025006,16.4385934 31.3958484,16.4456369 31.3890006,16.4526804 L22.9536559,25.5135248 C22.8384168,25.3642423 22.7153516,25.2180902 22.576243,25.0793728 C22.437917,24.9414381 22.2896127,24.8201338 22.1373953,24.7066556 L31.2127181,16.2818761 C31.2197615,16.2754196 31.2266094,16.2687674 31.2334572,16.2619196 C31.2684789,16.2267022 31.3256093,16.2267022 31.3608267,16.2617239 L31.4093484,16.31005 C31.4261745,16.3268761 31.4347832,16.3474195 31.4347832,16.3710934 C31.4347832,16.3945717 31.4261745,16.4151152 31.4093484,16.4317456 M21.2283957,29.855045 C20.0713091,31.0093924 18.4986575,31.3791748 16.8289625,30.9143054 C17.0044624,30.4283056 17.1828972,29.7871537 17.1967885,29.1595017 L17.1967885,29.1593061 C17.1995276,29.0376105 17.1971798,28.9031975 17.1944406,28.7584149 C17.1791798,27.9599587 17.1617667,27.0550677 18.0314403,26.187155 C18.9797661,25.2413728 20.5224829,25.2413728 21.4708086,26.1873507 C21.9454606,26.6608288 22.1962866,27.2241112 22.1962866,27.8157631 C22.1962866,28.5081759 21.8525259,29.23248 21.2283957,29.855045 M33,16.3714847 C33,15.9297023 32.8278262,15.5145285 32.5149784,15.2022678 L32.4666524,15.1539417 C31.8253048,14.513768 30.7846313,14.5104419 30.1387837,15.1431808 L20.592135,24.0054384 C19.3104181,23.7317211 17.919723,24.087808 16.9260059,25.0791772 C15.5840282,26.4182201 15.6123977,27.9020457 15.6294195,28.7883497 C15.6317673,28.9098497 15.6343108,29.0225453 15.6319629,29.1248713 C15.6159195,29.8438928 15.2338109,30.7335229 15.0886371,31.0142837 C14.9874849,31.2083705 14.9722241,31.4357183 15.0463762,31.6415443 C15.1205284,31.8473703 15.2774413,32.0126963 15.4791587,32.0974137 C16.3938322,32.4822614 17.3141797,32.6712613 18.2006794,32.6712613 C19.7549397,32.6712613 21.2045261,32.0899789 22.3340257,30.9630228 C23.2545688,30.0446318 23.7615034,28.9268714 23.7615034,27.8157631 C23.7615034,27.5496762 23.73196,27.288872 23.6765904,27.0343286 L32.5261306,17.5283756 C32.8317392,17.2178757 32.9998043,16.8075933 33,16.3714847" id="brush" fill="#1F1F21"></path>
                    </g>
                </g>
            </g>
        </g>
    </g>
</svg>