<?xml version="1.0" encoding="UTF-8" standalone="no"?>
<svg width="48px" height="48px" viewBox="0 0 48 48" version="1.1" xmlns="http://www.w3.org/2000/svg" xmlns:xlink="http://www.w3.org/1999/xlink">
    <!-- Generator: Sketch 41 (35326) - http://www.bohemiancoding.com/sketch -->
    <title>code-icon</title>
    <desc>Created with Sketch.</desc>
    <defs></defs>
    <g id="Page-1" stroke="none" stroke-width="1" fill="none" fill-rule="evenodd">
        <g id="Desktop-v4" transform="translate(-461.000000, -505.000000)">
            <g id="services" transform="translate(160.000000, 448.000000)">
                <g id="development" transform="translate(300.000000, 57.000000)">
                    <g id="code-icon" transform="translate(1.000000, 0.000000)">
                        <ellipse id="code-bg" fill="#D8D8D8" cx="24" cy="23.6712329" rx="24" ry="23.6712329"></ellipse>
                        <path d="M21.8824884,29.4840312 C22.2029302,29.1508219 22.1924651,28.6208684 21.8592558,28.3002173 L17.045093,23.6712871 L21.8592558,19.0421475 C22.1924651,18.7217057 22.2029302,18.1917522 21.8824884,17.8585429 C21.5620465,17.524915 21.032093,17.5146591 20.6986744,17.8353103 L15.256814,23.0678684 C15.0927209,23.2254731 15,23.4435661 15,23.6712871 C15,23.899008 15.0927209,24.1168917 15.256814,24.2747057 L20.6986744,29.5072638 C20.861093,29.6634033 21.070186,29.7410545 21.2788605,29.7410545 C21.4986279,29.7410545 21.718186,29.6548219 21.8824884,29.4840312 M26.7209302,29.7410545 C26.5011628,29.7410545 26.281814,29.6550312 26.1173023,29.4840312 C25.7968605,29.1508219 25.8073256,28.6208684 26.1405349,28.3002173 L30.954907,23.6712871 L26.1405349,19.0421475 C25.8073256,18.7217057 25.7968605,18.1917522 26.1173023,17.8585429 C26.4377442,17.5251243 26.9676977,17.5148684 27.3011163,17.8353103 L32.7429767,23.0678684 C32.9070698,23.2254731 33,23.4435661 33,23.6712871 C33,23.899008 32.9070698,24.1168917 32.7429767,24.2747057 L27.3011163,29.5072638 C27.1386977,29.6634033 26.929814,29.7410545 26.7209302,29.7410545" id="code" fill="#1F1F21"></path>
                    </g>
                </g>
            </g>
        </g>
    </g>
</svg>